# xmcd
#
# Track frame offsets:
#	150
#	9982
#	16084
#	22793
#	39856
#	58355
#	82993
#	107981
#	120835
#	124265
#	127425
#	138610
#	154717
#	171325
#	176691
#	186142
#	195688
#	225794
#	241629
#	263940
#	276199
#
# Disc length: 3911 seconds
#
# Revision: 2
# Processed by: cddbd v1.5.2PL0 Copyright (c) Steve Scherf et al.
# Submitted via: EZCDAudioConverter 2.1.7.1
#
DISCID=120f4515
DTITLE=Cosmic Dealer - Crystallization 2/2
DYEAR=1971
DGENRE=
TTITLE0=Daybreak [Demo]
TTITLE1=If There Is Nothing Behind The Hills [Demo Mono]
TTITLE2=If There Is Nothing Behind The Hills [Mix 1]
TTITLE3=Swingin' Joe Brown [Demo]
TTITLE4=I Had A Friend [Demo]
TTITLE5=Crystallization [Demo]
TTITLE6=Crystallization [Mix 1]
TTITLE7=The Fly [Demo]
TTITLE8=One Night [Demo]
TTITLE9=One Night [Mix 1]
TTITLE10=Find Your Way [Demo]
TTITLE11=Flying In The Winter [Demo]
TTITLE12=Head In The Clouds [Demo]
TTITLE13=Illusions [Demo Take 1 Mono]
TTITLE14=Illusions [Demo Take 2 Mono]
TTITLE15=Illusions [Demo Take 3 Stereo]
TTITLE16=Fast [Live 1]
TTITLE17=Child Of The Golden Sun [Live 1]
TTITLE18=Fast [Live 2]
TTITLE19=Swingin' Joe Brown [Live]
TTITLE20=Child Of The Golden Sun [Live 2]
EXTD=
EXTT0=
EXTT1=
EXTT2=
EXTT3=
EXTT4=
EXTT5=
EXTT6=
EXTT7=
EXTT8=
EXTT9=
EXTT10=
EXTT11=
EXTT12=
EXTT13=
EXTT14=
EXTT15=
EXTT16=
EXTT17=
EXTT18=
EXTT19=
EXTT20=
PLAYORDER=
